<?xml version="1.0" standalone="no"?>
<!DOCTYPE svg PUBLIC "-//W3C//DTD SVG 20010904//EN"
 "http://www.w3.org/TR/2001/REC-SVG-20010904/DTD/svg10.dtd">
<svg version="1.0" xmlns="http://www.w3.org/2000/svg"
 width="130.000000pt" height="130.000000pt" viewBox="0 0 130.000000 130.000000"
 preserveAspectRatio="xMidYMid meet">
<metadata>
Created by potrace 1.14, written by Peter Selinger 2001-2017
</metadata>
<g transform="translate(0.000000,130.000000) scale(0.100000,-0.100000)"
fill="#000000" stroke="none">
<path d="M0 650 l0 -650 549 0 550 0 -92 93 c-51 51 -146 150 -212 222 -124
133 -166 178 -248 263 l-49 49 159 199 c217 271 207 257 194 283 -7 11 -21 21
-31 21 -11 0 -20 4 -20 8 0 10 295 10 305 1 3 -4 -13 -9 -36 -13 -78 -12 -98
-30 -269 -231 -47 -54 -109 -126 -137 -158 -29 -33 -53 -63 -53 -68 0 -4 19
-28 43 -52 23 -25 94 -100 157 -168 107 -115 234 -250 305 -324 53 -55 145
-125 165 -125 20 0 20 11 20 650 l0 650 -650 0 -650 0 0 -650z m570 489 c0 -3
-16 -10 -37 -15 -20 -5 -45 -21 -56 -36 -19 -26 -20 -43 -20 -456 1 -302 4
-435 12 -450 14 -26 41 -41 75 -44 15 -1 26 -6 26 -10 0 -4 -72 -8 -161 -8
-104 0 -158 3 -154 10 3 6 17 10 30 10 14 0 34 12 49 31 l26 31 0 426 c0 406
-1 429 -20 459 -13 23 -29 34 -55 39 -72 13 -30 20 125 20 88 -1 160 -3 160
-7z m385 -323 c-15 -11 -18 -31 -18 -151 1 -122 3 -140 19 -152 16 -11 12 -13
-32 -13 -33 0 -44 3 -35 9 11 7 15 40 16 151 1 124 -1 143 -17 154 -14 10 -9
12 33 13 44 1 48 0 34 -11z m165 0 c-31 -17 -125 -124 -125 -142 0 -19 114
-154 139 -164 19 -8 18 -9 -9 -9 -38 0 -50 9 -119 93 -49 60 -55 71 -43 85 78
94 98 123 94 135 -4 9 7 13 41 14 45 1 46 1 22 -12z"/>
</g>
</svg>
